<svg xmlns="http://www.w3.org/2000/svg" width="42.066" height="28.396" viewBox="0 0 42.066 28.396">
  <path id="Icon_zocial-email" data-name="Icon zocial-email" d="M.072,29.949V6.583q0-.041.122-.771L13.945,17.576.234,30.76a3.438,3.438,0,0,1-.162-.811ZM1.9,4.19a1.748,1.748,0,0,1,.69-.122H39.623a2.3,2.3,0,0,1,.73.122l-13.792,11.8-1.825,1.46-3.61,2.961-3.61-2.961-1.825-1.46Zm.041,28.152L15.771,19.077l5.355,4.34,5.355-4.34L40.313,32.342a1.948,1.948,0,0,1-.69.122H2.587a1.837,1.837,0,0,1-.649-.122ZM28.305,17.576,42.016,5.812a2.421,2.421,0,0,1,.122.771V29.949a3.109,3.109,0,0,1-.122.811Z" transform="translate(-0.072 -4.068)" fill="#ebc985"/>
</svg>
