<svg xmlns="http://www.w3.org/2000/svg" width="40.724" height="40.715" viewBox="0 0 40.724 40.715">
  <path id="Icon_awesome-instagram" data-name="Icon awesome-instagram" d="M20.361,12.156A10.439,10.439,0,1,0,30.8,22.595,10.422,10.422,0,0,0,20.361,12.156Zm0,17.225a6.787,6.787,0,1,1,6.787-6.787,6.8,6.8,0,0,1-6.787,6.787Zm13.3-17.652a2.435,2.435,0,1,1-2.435-2.435A2.429,2.429,0,0,1,33.662,11.729ZM40.575,14.2c-.154-3.262-.9-6.151-3.289-8.531s-5.269-3.125-8.531-3.289c-3.361-.191-13.437-.191-16.8,0-3.252.154-6.141.9-8.531,3.28S.3,10.93.138,14.191c-.191,3.361-.191,13.437,0,16.8.154,3.262.9,6.151,3.289,8.531s5.269,3.125,8.531,3.289c3.361.191,13.437.191,16.8,0,3.262-.154,6.151-.9,8.531-3.289s3.125-5.269,3.289-8.531c.191-3.361.191-13.428,0-16.789ZM36.233,34.6a6.871,6.871,0,0,1-3.87,3.87c-2.68,1.063-9.04.818-12,.818s-9.33.236-12-.818A6.871,6.871,0,0,1,4.49,34.6c-1.063-2.68-.818-9.04-.818-12s-.236-9.33.818-12a6.871,6.871,0,0,1,3.87-3.87c2.68-1.063,9.04-.818,12-.818s9.33-.236,12,.818a6.871,6.871,0,0,1,3.87,3.87c1.063,2.68.818,9.04.818,12S37.3,31.925,36.233,34.6Z" transform="translate(0.005 -2.238)" fill="#9d978b"/>
</svg>
