<svg xmlns="http://www.w3.org/2000/svg" width="68" height="72" viewBox="0 0 68 72">
  <g id="Group_8" data-name="Group 8" transform="translate(-150 -650)">
    <ellipse id="Ellipse_1" data-name="Ellipse 1" cx="34" cy="36" rx="34" ry="36" transform="translate(150 650)" fill="#ebc985"/>
    <path id="Icon_ionic-ios-call" data-name="Icon ionic-ios-call" d="M33.309,24.813A25.445,25.445,0,0,0,28.1,21.767c-1.561-.655-2.132-.642-3.237.054-.919.581-1.514,1.121-2.573.918s-3.144-1.58-5.168-3.343-3.6-3.593-3.824-4.518.394-1.445,1.051-2.249c.8-.966.819-1.465.062-2.829A21.408,21.408,0,0,0,10.929,5.25c-1.136-.993-1.391-.777-2.016-.581a12.157,12.157,0,0,0-1.846.858A5.2,5.2,0,0,0,4.849,7.573c-.44.831-.95,2.377,1.646,6.415a36.655,36.655,0,0,0,7.2,8.394h0l.008.007.008.007h0a41.15,41.15,0,0,0,9.6,6.294c4.62,2.269,6.389,1.823,7.339,1.438a5.255,5.255,0,0,0,2.341-1.938,9.638,9.638,0,0,0,.981-1.614C34.2,26.028,34.453,25.805,33.309,24.813Z" transform="translate(164.51 668.497)" fill="#fff"/>
  </g>
</svg>
