<svg xmlns="http://www.w3.org/2000/svg" width="46.269" height="37.579" viewBox="0 0 46.269 37.579">
  <path id="Icon_awesome-twitter" data-name="Icon awesome-twitter" d="M41.513,12.746c.029.411.029.822.029,1.233,0,12.536-9.541,26.98-26.98,26.98A26.8,26.8,0,0,1,0,36.7a19.617,19.617,0,0,0,2.29.117,18.991,18.991,0,0,0,11.773-4.051A9.5,9.5,0,0,1,5.2,26.192a11.958,11.958,0,0,0,1.791.147,10.029,10.029,0,0,0,2.5-.323,9.484,9.484,0,0,1-7.6-9.307v-.117a9.55,9.55,0,0,0,4.286,1.2A9.5,9.5,0,0,1,3.229,5.113a26.954,26.954,0,0,0,19.553,9.923,10.7,10.7,0,0,1-.235-2.172A9.492,9.492,0,0,1,38.958,6.375a18.67,18.67,0,0,0,6.018-2.29,9.457,9.457,0,0,1-4.169,5.226,19.01,19.01,0,0,0,5.461-1.468,20.384,20.384,0,0,1-4.756,4.9Z" transform="translate(0 -3.381)" fill="#9d978b"/>
</svg>
