<svg id="Group_14" data-name="Group 14" xmlns="http://www.w3.org/2000/svg" width="200.536" height="151.379" viewBox="0 0 200.536 151.379">
  <path id="Path_145" data-name="Path 145" d="M629.867,113.828c1.72,3.661-1.925,4.7-6.1,6.659s-7.3,4.106-9.02.446-3.116-10.926,2.791-13.7C623.648,104.36,628.147,110.168,629.867,113.828Z" transform="translate(-514.304 -106.46)" fill="#2f2e41"/>
  <circle id="Ellipse_27" data-name="Ellipse 27" cx="5.621" cy="5.621" r="5.621" transform="translate(101.424 3.325)" fill="#ffb8b8"/>
  <path id="Path_146" data-name="Path 146" d="M703.092,229.626c-.195-.254-.389-.5-.586-.746q-.381-.474-.767-.918c-2.913-3.362-6.012-5.479-9.424-5.705h0l-.05,0-6.8,6.628-2.311,2.252.05.124,1.247,3.106H706.3a53.742,53.742,0,0,0-3.208-4.735Z" transform="translate(-568.201 -195.754)" fill="#2f2e41"/>
  <path id="Path_147" data-name="Path 147" d="M619.994,125.216h0l2.012-.945-.28-2.9,1.345,2.4.962-.452-.164-1.693.785,1.4,7.146-3.358h0a5.95,5.95,0,0,0-7.916-2.855l-1.036.487A5.95,5.95,0,0,0,619.994,125.216Z" transform="translate(-519.062 -114.008)" fill="#2f2e41"/>
  <path id="Path_148" data-name="Path 148" d="M417.192,341.582H299.828a3.78,3.78,0,0,1-3.776-3.776V267.285a2.77,2.77,0,0,1,2.766-2.766H418.154a2.817,2.817,0,0,1,2.814,2.814v70.474a3.78,3.78,0,0,1-3.776,3.776Z" transform="translate(-269.691 -228.347)" fill="#f2f2f2"/>
  <path id="Path_149" data-name="Path 149" d="M316.213,358.392H426.254a3.662,3.662,0,0,0,3.662-3.662V294.874a3.662,3.662,0,0,0-3.662-3.662H316.213a3.662,3.662,0,0,0-3.662,3.662V354.73A3.662,3.662,0,0,0,316.213,358.392Z" transform="translate(-282.415 -248.932)" fill="#fff"/>
  <path id="Path_150" data-name="Path 150" d="M420.737,256.423H295.82V254.5a3.793,3.793,0,0,1,3.79-3.787H416.947a3.793,3.793,0,0,1,3.79,3.787Z" transform="translate(-269.512 -217.7)" fill="#ebc985"/>
  <circle id="Ellipse_28" data-name="Ellipse 28" cx="0.98" cy="0.98" r="0.98" transform="translate(32.215 34.893)" fill="#fff"/>
  <circle id="Ellipse_29" data-name="Ellipse 29" cx="0.98" cy="0.98" r="0.98" transform="translate(35.936 34.893)" fill="#fff"/>
  <circle id="Ellipse_30" data-name="Ellipse 30" cx="0.98" cy="0.98" r="0.98" transform="translate(39.657 34.893)" fill="#fff"/>
  <path id="Path_151" data-name="Path 151" d="M543.489,480.228h-9.841a2.177,2.177,0,0,1-2.174-2.174v-9.841a2.177,2.177,0,0,1,2.174-2.174h9.841a2.177,2.177,0,0,1,2.174,2.174v9.841A2.177,2.177,0,0,1,543.489,480.228ZM533.648,466.5a1.718,1.718,0,0,0-1.716,1.716v9.841a1.718,1.718,0,0,0,1.716,1.716h9.841a1.718,1.718,0,0,0,1.716-1.716v-9.841a1.718,1.718,0,0,0-1.716-1.716Z" transform="translate(-451.237 -383.749)" fill="#ccc"/>
  <path id="Path_152" data-name="Path 152" d="M553.111,486.736h-5.95a.687.687,0,0,1-.687-.687v-7.323a.687.687,0,0,1,.687-.687h4.311a.688.688,0,0,1,.43.151l1.639,1.317a.683.683,0,0,1,.257.535v6.006a.687.687,0,0,1-.687.687Zm-5.95-8.239a.229.229,0,0,0-.229.229v7.323a.229.229,0,0,0,.229.229h5.95a.229.229,0,0,0,.229-.229v-6.006a.228.228,0,0,0-.085-.178l-1.639-1.317a.229.229,0,0,0-.143-.05Z" transform="translate(-462.804 -393.003)" fill="#ccc"/>
  <path id="Path_153" data-name="Path 153" d="M557.365,490.5H553.7a.229.229,0,0,1,0-.458h3.662a.229.229,0,1,1,0,.458Z" transform="translate(-468.202 -402.257)" fill="#ccc"/>
  <path id="Path_154" data-name="Path 154" d="M557.365,496.5H553.7a.229.229,0,0,1,0-.458h3.662a.229.229,0,1,1,0,.458Z" transform="translate(-468.202 -406.884)" fill="#ccc"/>
  <path id="Path_155" data-name="Path 155" d="M557.365,502.5H553.7a.229.229,0,0,1,0-.458h3.662a.229.229,0,1,1,0,.458Z" transform="translate(-468.202 -411.511)" fill="#ccc"/>
  <path id="Path_156" data-name="Path 156" d="M645.489,480.228h-9.841a2.177,2.177,0,0,1-2.174-2.174v-9.841a2.177,2.177,0,0,1,2.174-2.174h9.841a2.177,2.177,0,0,1,2.174,2.174v9.841A2.176,2.176,0,0,1,645.489,480.228ZM635.649,466.5a1.718,1.718,0,0,0-1.716,1.716v9.841a1.718,1.718,0,0,0,1.716,1.716h9.841a1.718,1.718,0,0,0,1.716-1.716v-9.841a1.718,1.718,0,0,0-1.716-1.716Z" transform="translate(-529.894 -383.749)" fill="#ccc"/>
  <path id="Path_157" data-name="Path 157" d="M654.569,491.074h-6.408a.687.687,0,0,1-.687-.687v-3.662a.687.687,0,0,1,.687-.687h6.408a.687.687,0,0,1,.687.687v3.662A.687.687,0,0,1,654.569,491.074Zm-6.408-4.577a.229.229,0,0,0-.229.229v3.662a.229.229,0,0,0,.229.229h6.408a.229.229,0,0,0,.229-.229v-3.662a.229.229,0,0,0-.229-.229Z" transform="translate(-540.69 -399.172)" fill="#ccc"/>
  <path id="Path_158" data-name="Path 158" d="M651.365,490.7a.687.687,0,0,1-.364-.1l-3.419-2.137a.229.229,0,1,1,.243-.388l3.419,2.137a.23.23,0,0,0,.242,0l3.419-2.137a.229.229,0,1,1,.243.388l-3.419,2.137A.688.688,0,0,1,651.365,490.7Z" transform="translate(-540.69 -400.714)" fill="#ccc"/>
  <path id="Path_159" data-name="Path 159" d="M441.489,480.228h-9.841a2.177,2.177,0,0,1-2.174-2.174v-9.841a2.177,2.177,0,0,1,2.174-2.174h9.841a2.177,2.177,0,0,1,2.174,2.174v9.841A2.177,2.177,0,0,1,441.489,480.228ZM431.648,466.5a1.718,1.718,0,0,0-1.716,1.716v9.841a1.718,1.718,0,0,0,1.716,1.716h9.841a1.718,1.718,0,0,0,1.716-1.716v-9.841a1.718,1.718,0,0,0-1.716-1.716Z" transform="translate(-372.58 -383.749)" fill="#ccc"/>
  <path id="Path_160" data-name="Path 160" d="M450.569,491.074h-6.408a.687.687,0,0,1-.687-.687v-3.662a.687.687,0,0,1,.687-.687h6.408a.687.687,0,0,1,.687.687v3.662A.687.687,0,0,1,450.569,491.074Zm-6.408-4.577a.229.229,0,0,0-.229.229v3.662a.229.229,0,0,0,.229.229h6.408a.229.229,0,0,0,.229-.229v-3.662a.229.229,0,0,0-.229-.229Z" transform="translate(-383.376 -399.172)" fill="#ccc"/>
  <path id="Path_161" data-name="Path 161" d="M452.975,496.858H448.37a.458.458,0,0,1-.4-.687l1.387-2.4a.458.458,0,0,1,.793,0l.9,1.552.519-.9a.458.458,0,0,1,.793,0l1.01,1.75a.458.458,0,0,1-.4.687Zm0-.458h0l-1.01-1.75-.717,1.242a.229.229,0,0,1-.2.114h0a.229.229,0,0,1-.2-.114l-1.094-1.9-1.387,2.4Z" transform="translate(-386.798 -404.956)" fill="#ccc"/>
  <circle id="Ellipse_31" data-name="Ellipse 31" cx="0.458" cy="0.458" r="0.458" transform="translate(66.049 87.783)" fill="#ccc"/>
  <path id="Path_162" data-name="Path 162" d="M754.873,611.683h-2.806l-1.335-10.822h4.141Z" transform="translate(-578.927 -463.353)" fill="#ffb8b8"/>
  <path id="Path_163" data-name="Path 163" d="M922.332,754.243h-9.047v-.114a3.521,3.521,0,0,1,3.521-3.521h5.526Z" transform="translate(-745.669 -603.193)" fill="#2f2e41"/>
  <path id="Path_164" data-name="Path 164" d="M804.873,611.683h-2.806l-1.335-10.822h4.141Z" transform="translate(-617.484 -463.353)" fill="#ffb8b8"/>
  <path id="Path_165" data-name="Path 165" d="M972.332,754.243h-9.047v-.114a3.521,3.521,0,0,1,3.521-3.521h5.526Z" transform="translate(-784.227 -603.193)" fill="#2f2e41"/>
  <path id="Path_166" data-name="Path 166" d="M944.144,593.948l-2.6-.79a1.028,1.028,0,0,1-.724-.877l-2.423-22.96a.11.11,0,0,0-.109-.1.107.107,0,0,0-.117.094l-4.058,22.244a1.03,1.03,0,0,1-1.221.824l-3.321-.684a1.034,1.034,0,0,1-.82-1.078l2.468-36.459,16.738-1.806-2.487,40.673a1.029,1.029,0,0,1-1.328.923Z" transform="translate(-757.595 -450.31)" fill="#2f2e41"/>
  <circle id="Ellipse_32" data-name="Ellipse 32" cx="5.621" cy="5.621" r="5.621" transform="translate(180.912 60.858)" fill="#ffb8b8"/>
  <path id="Path_167" data-name="Path 167" d="M939.433,459.566l3.629-22.851a8.664,8.664,0,0,1,10.986-6.957h0a8.638,8.638,0,0,1,6.088,9.9l-3.8,20.407Z" transform="translate(-765.833 -355.503)" fill="#ebc985"/>
  <path id="Path_168" data-name="Path 168" d="M990.59,542.747a2.3,2.3,0,0,0,.4-3.506l3.752-7.266-4.226.451-2.915,6.831a2.314,2.314,0,0,0,2.989,3.49Z" transform="translate(-802.506 -434.595)" fill="#ffb8b8"/>
  <path id="Path_169" data-name="Path 169" d="M998.414,471a1.031,1.031,0,0,1-.555-.263l-1.436-1.327a1.033,1.033,0,0,1-.25-1.157l2.869-6.8-.407-13.438a3.318,3.318,0,1,1,6.574.9l.7,8.447a10.613,10.613,0,0,1-2.045,7.185l-4.475,6.049a1.031,1.031,0,0,1-.731.413A1.018,1.018,0,0,1,998.414,471Z" transform="translate(-809.527 -367.638)" fill="#ebc985"/>
  <path id="Path_170" data-name="Path 170" d="M854.364,374.3a2.3,2.3,0,0,0,3.073,1.735l5.228,6.288,1.232-4.067-5.154-5.348a2.314,2.314,0,0,0-4.379,1.392Z" transform="translate(-700.201 -310.883)" fill="#ffb8b8"/>
  <path id="Path_171" data-name="Path 171" d="M871.907,390.561a1.031,1.031,0,0,1,.459-.409l1.781-.8a1.033,1.033,0,0,1,1.163.221l5.144,5.294,12.533,4.865a3.318,3.318,0,0,1-3.389,5.7l-8.05-2.653a10.613,10.613,0,0,1-5.819-4.685l-3.826-6.479a1.031,1.031,0,0,1-.1-.834,1.02,1.02,0,0,1,.1-.219Z" transform="translate(-713.647 -324.538)" fill="#ebc985"/>
  <path id="Path_172" data-name="Path 172" d="M820.025,375.652l-.229,7.323L815.58,390.3l3.52-8.164Z" transform="translate(-628.933 -289.683)" opacity="0.1"/>
  <path id="Path_173" data-name="Path 173" d="M970.755,374.537a1.47,1.47,0,0,1-1.609-1.076,2.234,2.234,0,0,0-1.591-1.665c-1.031-.236-2.291.25-3.047-.531a1.519,1.519,0,0,1-.361-1.337,3.071,3.071,0,0,1,1.273-1.791,7.8,7.8,0,0,1,4.318-1.614,15.488,15.488,0,0,1,2.431.121,10.759,10.759,0,0,1,2.486.454,5.853,5.853,0,0,1,3.662,4.275,6.758,6.758,0,0,1-1.386,5.522,7.255,7.255,0,0,1-2.783,2.119,1.086,1.086,0,0,1-.825.042c-.677-.269-.566-1.107-.258-1.667.33-.6.838-1.178.573-1.906a1.442,1.442,0,0,0-.716-.77,3.689,3.689,0,0,0-2.149-.178Z" transform="translate(-784.866 -307.002)" fill="#2f2e41"/>
  <path id="Path_174" data-name="Path 174" d="M599.144,339.861H529.573a3.78,3.78,0,0,1-3.776-3.776V321.209a3.78,3.78,0,0,1,3.776-3.776h69.571a3.78,3.78,0,0,1,3.776,3.776v14.875A3.78,3.78,0,0,1,599.144,339.861Z" transform="translate(-446.859 -269.152)" fill="#fff"/>
  <path id="Path_175" data-name="Path 175" d="M598.759,339.59H529.188a3.9,3.9,0,0,1-3.891-3.89V320.824a3.9,3.9,0,0,1,3.891-3.89h69.571a3.9,3.9,0,0,1,3.891,3.89V335.7A3.9,3.9,0,0,1,598.759,339.59Zm-69.571-22.2a3.437,3.437,0,0,0-3.433,3.433V335.7a3.437,3.437,0,0,0,3.433,3.433h69.571a3.437,3.437,0,0,0,3.433-3.433V320.824a3.437,3.437,0,0,0-3.433-3.433Z" transform="translate(-446.473 -268.766)" fill="#3f3d56"/>
  <path id="Path_176" data-name="Path 176" d="M619.209,347.766H566.573a3.78,3.78,0,0,1-3.776-3.776v-7.781a3.78,3.78,0,0,1,3.776-3.776h52.636a3.78,3.78,0,0,1,3.776,3.776v7.781a3.78,3.78,0,0,1-3.776,3.776Z" transform="translate(-475.391 -280.719)" fill="#f2f2f2"/>
  <circle id="Ellipse_33" data-name="Ellipse 33" cx="4.516" cy="4.516" r="4.516" transform="translate(97.993 53.822)" fill="#ff6584"/>
  <path id="Path_177" data-name="Path 177" d="M639.408,356.891l-6.374-5.346-6.264-5.254a.915.915,0,0,0-1.179,0l-6.244,5.278-1.525,1.289-2.3-1.929-6.988-5.861a.915.915,0,0,0-1.179,0l-6.966,5.888-7.075,5.981a.229.229,0,0,0,.148.4l14.506-.028,4.592-.009-.045.038,13.687-.026,13.06-.025a.229.229,0,0,0,.147-.4Z" transform="translate(-498.862 -290.3)" fill="#3f3d56"/>
  <path id="Path_178" data-name="Path 178" d="M907.3,766.391H863.365a.229.229,0,0,1,0-.458H907.3a.229.229,0,0,1,0,.458Z" transform="translate(-706.997 -615.012)" fill="#ccc"/>
  <path id="Path_179" data-name="Path 179" d="M707.309,179.634a2.568,2.568,0,0,0-1.659-1.167,2.359,2.359,0,0,0-.38-.048L687.833,162.83a2.063,2.063,0,0,0-1.288-.616,1.756,1.756,0,0,0-.291-.009,2.072,2.072,0,0,0-1.364,3.543l6.676,5.82,10.962,9.555a2.728,2.728,0,0,0,.08.533,2.578,2.578,0,0,0,2.213,1.915,2.539,2.539,0,0,0,1.385-.229,2.61,2.61,0,0,0,.888-.68c.025-.03.048-.057.071-.089a2.584,2.584,0,0,0,.144-2.938Z" transform="translate(-569.07 -149.446)" fill="#ffb8b8"/>
  <path id="Path_180" data-name="Path 180" d="M638.715,218.841l-.162-6.6-.137-5.481-.094-3.836-.185-7.477a2.07,2.07,0,0,0-3.6-1.2,1.588,1.588,0,0,0-.172.22,2.045,2.045,0,0,0-.357,1.385l.407,10.909.2,5.481.261,6.991a2.752,2.752,0,0,0-.2.323,2.588,2.588,0,1,0,4.035-.709Z" transform="translate(-530.3 -173.629)" fill="#ffb8b8"/>
  <path id="Path_181" data-name="Path 181" d="M655.132,175.457l-1.618-4.383-2.618-7.1a3.663,3.663,0,0,0-2.277-2.215c-.041-.014-.085-.027-.126-.039a3.658,3.658,0,0,0-3.03.417l-8.818,5.593a3.683,3.683,0,0,0-1.206,4.978,63.239,63.239,0,0,0,3.6,5.536c1.028,1.4,2.941,1.547,3.273,3.836h6.5l6.582-5.909Z" transform="translate(-531.017 -148.953)" fill="#9d978b"/>
  <circle id="Ellipse_34" data-name="Ellipse 34" cx="5.303" cy="5.303" r="5.303" transform="translate(17.849 69.459)" fill="#a0616a"/>
  <path id="Path_182" data-name="Path 182" d="M294.661,415.46q.078.062.152.132a2.376,2.376,0,0,1-.1,3.543,2.227,2.227,0,0,1-.186.14l.359,12.117a1.845,1.845,0,0,1-1.269,1.8l-.022,0-9.838,1.048a2.036,2.036,0,1,1-.394-4.054l7.013-.618,1.213-10.493a2.258,2.258,0,0,1-.222-.227,2.375,2.375,0,0,1,3.29-3.395Z" transform="translate(-258.49 -344.349)" fill="#a0616a"/>
  <path id="Path_183" data-name="Path 183" d="M139.326,614.771h2.647l1.259-10.21h-3.907Z" transform="translate(-107.441 -466.206)" fill="#a0616a"/>
  <path id="Path_184" data-name="Path 184" d="M317.242,751.858h5.213a3.322,3.322,0,0,1,3.322,3.322v.108h-8.535Z" transform="translate(-286.032 -604.157)" fill="#2f2e41"/>
  <path id="Path_185" data-name="Path 185" d="M24.366,603.622l2.274,1.354,6.306-8.128-3.357-2Z" transform="translate(-18.79 -458.717)" fill="#a0616a"/>
  <path id="Path_186" data-name="Path 186" d="M198.714,734.889l4.479,2.667h0a3.322,3.322,0,0,1,1.155,4.554l-.055.093-7.333-4.366Z" transform="translate(-193.276 -591.072)" fill="#2f2e41"/>
  <path id="Path_187" data-name="Path 187" d="M239.86,575.834H236.9a.97.97,0,0,1-.966-.869l-2.988-28.089a.324.324,0,0,0-.617-.1l-5.391,11.937-9.544,15.563a.976.976,0,0,1-1.22.381l-3.813-1.677a.972.972,0,0,1-.443-1.388l8.773-14.69,2.691-12.378c-.846-5.368,2.782-13.348,2.818-13.428l.018-.039,9.993-3.906.05.061c3.941,12.933,6.343,26.852,4.569,47.731A.978.978,0,0,1,239.86,575.834Z" transform="translate(-204.702 -430.876)" fill="#2f2e41"/>
  <path id="Path_188" data-name="Path 188" d="M258.292,483.784l-.047-.1c-.022-.047-2.244-4.733-3.957-9.743a7.388,7.388,0,0,1,.512-5.921,7.469,7.469,0,0,1,4.763-3.663h0a7.478,7.478,0,0,1,8.68,4.479c1.359,3.4.926,7.025.518,9.877l-.008.057-.052.025Z" transform="translate(-237.182 -382.294)" fill="#3f3d56"/>
  <path id="Path_189" data-name="Path 189" d="M281.75,404.985h-8.42v-3.67c1.848-.734,3.657-1.359,4.75,0a3.67,3.67,0,0,1,3.67,3.67Z" transform="translate(-252.169 -333.218)" fill="#2f2e41"/>
  <path id="Path_190" data-name="Path 190" d="M249.583,401.185c-5.034,0-6.443,6.31-6.443,9.869,0,1.985.9,2.7,2.309,2.935l.5-2.657,1.167,2.772c.4,0,.813-.006,1.244-.014l.4-.815.882.8c3.534.005,6.39.52,6.39-3.021C256.026,407.495,254.79,401.185,249.583,401.185Z" transform="translate(-228.888 -333.737)" fill="#2f2e41"/>
  <path id="Path_191" data-name="Path 191" d="M225.033,766.391H181.093a.229.229,0,0,1,0-.458h43.939a.229.229,0,0,1,0,.458Z" transform="translate(-180.864 -615.012)" fill="#ccc"/>
  <path id="Path_192" data-name="Path 192" d="M336.989,391.122h-9.841a2.177,2.177,0,0,1-2.174-2.174v-9.841a2.177,2.177,0,0,1,2.174-2.174h9.841a2.177,2.177,0,0,1,2.174,2.174v9.841A2.177,2.177,0,0,1,336.989,391.122Z" transform="translate(-291.995 -315.035)" fill="#fff"/>
  <path id="Path_193" data-name="Path 193" d="M336.989,391.122h-9.841a2.177,2.177,0,0,1-2.174-2.174v-9.841a2.177,2.177,0,0,1,2.174-2.174h9.841a2.177,2.177,0,0,1,2.174,2.174v9.841A2.177,2.177,0,0,1,336.989,391.122Zm-9.841-13.731a1.718,1.718,0,0,0-1.716,1.716v9.841a1.718,1.718,0,0,0,1.716,1.716h9.841a1.718,1.718,0,0,0,1.716-1.716v-9.841a1.718,1.718,0,0,0-1.716-1.716Z" transform="translate(-291.995 -315.035)" fill="#3f3d56"/>
  <path id="Path_194" data-name="Path 194" d="M346.069,400.612h-6.408a.687.687,0,0,1-.687-.687V395.12a.687.687,0,0,1,.687-.687h1.8a.682.682,0,0,1,.585.327l.5.818h3.516a.687.687,0,0,1,.687.687v3.662A.687.687,0,0,1,346.069,400.612Z" transform="translate(-302.791 -328.53)" fill="#ebc985"/>
  <path id="Path_195" data-name="Path 195" d="M305.825,427.888q.048.088.089.181a2.375,2.375,0,0,1-1.463,3.229,2.227,2.227,0,0,1-.226.057l-4.371,11.306a1.845,1.845,0,0,1-1.868,1.167l-.022,0-9.474-2.852a2.036,2.036,0,1,1,1.21-3.889l6.7,2.152,5.19-9.2a2.255,2.255,0,0,1-.117-.3,2.375,2.375,0,0,1,4.35-1.852Z" transform="translate(-262.755 -353.378)" fill="#a0616a"/>
</svg>
