<svg id="Group_11" data-name="Group 11" xmlns="http://www.w3.org/2000/svg" width="153.397" height="138.86" viewBox="0 0 153.397 138.86">
  <path id="Path_48" data-name="Path 48" d="M510.819,164.96h-51.3a3.325,3.325,0,0,1-3.322-3.322V121.346a2.436,2.436,0,0,1,2.433-2.433h53.035a2.478,2.478,0,0,1,2.475,2.476v40.251A3.325,3.325,0,0,1,510.819,164.96Z" transform="translate(-408.447 -116.133)" fill="#f2f2f2"/>
  <path id="Path_49" data-name="Path 49" d="M475.917,182.959h44.859A3.221,3.221,0,0,0,524,179.738v-30.91a3.221,3.221,0,0,0-3.221-3.221H475.917a3.221,3.221,0,0,0-3.221,3.221v30.91A3.221,3.221,0,0,0,475.917,182.959Z" transform="translate(-421.625 -137.453)" fill="#fff"/>
  <path id="Path_50" data-name="Path 50" d="M513.91,110.129H455.965v-1.691a3.336,3.336,0,0,1,3.334-3.332h51.277a3.336,3.336,0,0,1,3.334,3.332Z" transform="translate(-408.262 -105.106)" fill="#ccc"/>
  <circle id="Ellipse_10" data-name="Ellipse 10" cx="0.862" cy="0.862" r="0.862" transform="translate(52.899 1.654)" fill="#fff"/>
  <circle id="Ellipse_11" data-name="Ellipse 11" cx="0.862" cy="0.862" r="0.862" transform="translate(56.172 1.654)" fill="#fff"/>
  <circle id="Ellipse_12" data-name="Ellipse 12" cx="0.862" cy="0.862" r="0.862" transform="translate(59.445 1.654)" fill="#fff"/>
  <path id="Path_51" data-name="Path 51" d="M494.478,205.142h-2.222a.455.455,0,0,1-.454-.454v-2.222a.455.455,0,0,1,.454-.454h2.222a.455.455,0,0,1,.454.454v2.222A.455.455,0,0,1,494.478,205.142Z" transform="translate(-436.884 -182.504)" fill="#ebc985"/>
  <path id="Path_52" data-name="Path 52" d="M494.478,233.735h-2.222a.455.455,0,0,1-.454-.454v-2.222a.455.455,0,0,1,.454-.454h2.222a.455.455,0,0,1,.454.454v2.222A.455.455,0,0,1,494.478,233.735Z" transform="translate(-436.884 -205.341)" fill="#3f3d56"/>
  <path id="Path_53" data-name="Path 53" d="M494.478,262.329h-2.222a.455.455,0,0,1-.454-.454v-2.222a.455.455,0,0,1,.454-.454h2.222a.455.455,0,0,1,.454.454v2.222A.455.455,0,0,1,494.478,262.329Z" transform="translate(-436.884 -228.178)" fill="#ccc"/>
  <path id="Path_54" data-name="Path 54" d="M533.058,208.438h-10.7a.454.454,0,0,1,0-.909h10.7a.454.454,0,0,1,0,.909Z" transform="translate(-460.923 -186.911)" fill="#ccc"/>
  <path id="Path_55" data-name="Path 55" d="M533.058,237.032h-10.7a.454.454,0,0,1,0-.909h10.7a.454.454,0,0,1,0,.909Z" transform="translate(-460.923 -209.748)" fill="#ccc"/>
  <path id="Path_56" data-name="Path 56" d="M533.058,265.625h-10.7a.454.454,0,0,1,0-.909h10.7a.454.454,0,0,1,0,.909Z" transform="translate(-460.923 -232.585)" fill="#ccc"/>
  <path id="Path_57" data-name="Path 57" d="M670.62,199.015c.011-.191.018-.383.018-.577a9.525,9.525,0,0,0-9.525-9.525v10.1Z" transform="translate(-572.112 -172.041)" fill="#ebc985"/>
  <path id="Path_58" data-name="Path 58" d="M619.734,203.316v-10.1a9.525,9.525,0,1,0,9.508,10.1Z" transform="translate(-531.454 -175.477)" fill="#3f3d56"/>
  <path id="Path_59" data-name="Path 59" d="M372.2,793.3H219.2a.2.2,0,1,1,0-.4H372.2a.2.2,0,1,1,0,.4Z" transform="translate(-219 -654.436)" fill="#ccc"/>
  <path id="Path_60" data-name="Path 60" d="M708.337,514.61a2.159,2.159,0,0,1,.179.288l10.088,1.134,1.467-1.982,3.281,1.823-2.888,4.815-12.359-3.244a2.148,2.148,0,1,1,.232-2.835Z" transform="translate(-606.739 -431.485)" fill="#ffb8b8"/>
  <path id="Path_61" data-name="Path 61" d="M427.851,489.007a2.024,2.024,0,0,1-2.924-1.042l-7.192.15,1.992-3.163,6.524.342a2.035,2.035,0,0,1,1.6,3.712Z" transform="translate(-377.728 -408.486)" fill="#ffb8b8"/>
  <path id="Path_62" data-name="Path 62" d="M342.043,467.822a.908.908,0,0,1-.891.647l-13.163-.334-11.919-3.529a2.58,2.58,0,1,1,1.537-4.927l10.768,3.531,12.924,1.247a.911.911,0,0,1,.819.917l-.037,2.2A.91.91,0,0,1,342.043,467.822Z" transform="translate(-295.081 -388.206)" fill="#3f3d56"/>
  <path id="Path_63" data-name="Path 63" d="M138.459,638.832h2.468l1.174-9.519h-3.642Z" transform="translate(-110.586 -502.626)" fill="#ffb8b8"/>
  <path id="Path_64" data-name="Path 64" d="M354.333,777.7h4.861a3.1,3.1,0,0,1,3.1,3.1v.1h-7.958Z" transform="translate(-327.09 -642.304)" fill="#2f2e41"/>
  <path id="Path_65" data-name="Path 65" d="M102.459,638.832h2.468l1.174-9.519h-3.642Z" transform="translate(-81.833 -502.626)" fill="#ffb8b8"/>
  <path id="Path_66" data-name="Path 66" d="M318.333,777.7h4.861a3.1,3.1,0,0,1,3.1,3.1v.1h-7.958Z" transform="translate(-298.337 -642.304)" fill="#2f2e41"/>
  <path id="Path_67" data-name="Path 67" d="M313.233,577.021l.589,34.966a.805.805,0,0,0,.878.788l2.888-.263a.805.805,0,0,0,.73-.74l1.691-21.811a.2.2,0,0,1,.4.008l.845,22.31a.805.805,0,0,0,.8.775h3.1a.805.805,0,0,0,.8-.756l2.168-35.479L315.246,573.6Z" transform="translate(-294.263 -479.288)" fill="#2f2e41"/>
  <circle id="Ellipse_13" data-name="Ellipse 13" cx="4.944" cy="4.944" r="4.944" transform="translate(23.371 55.012)" fill="#ffb8b8"/>
  <path id="Path_68" data-name="Path 68" d="M324.581,467.712h-.014l-11.561-.178a.906.906,0,0,1-.887-.816l-.131-1.309a.1.1,0,0,0-.2,0l-.135,1.352a.9.9,0,0,1-.832.813l-.817.063a.906.906,0,0,1-.946-1.133l.7-2.682a36.545,36.545,0,0,0,.342-17.043l-.35-1.59a5.743,5.743,0,0,1,2.712-6.2l2.271-1.331,1.03-1.545a2.231,2.231,0,0,1,1.807-.991c1.437-.031,3.9.232,4.366,2.333a5.737,5.737,0,0,1,3.882,5.524l-.333,23.843A.906.906,0,0,1,324.581,467.712Z" transform="translate(-290.904 -368.682)" fill="#3f3d56"/>
  <path id="Path_69" data-name="Path 69" d="M337.487,383.6c-.02.7-.506,1.1-1.1,1.469a6.372,6.372,0,0,1-1.974.678.6.6,0,0,1-.887-.528l-.626-2.38a15.066,15.066,0,0,1-.482-2.322,5.334,5.334,0,0,1,1.263-4.231,3.385,3.385,0,0,1,4.149-.639c1.5-1.916,8.359,2.318,6.667,3.65-.3.237-.761-.063-1.143-.092a1.219,1.219,0,0,0-1.053.335c-.317.387-.179.964-.31,1.448a1.352,1.352,0,0,1-1.708.875,4.647,4.647,0,0,1-.886-.569,1.14,1.14,0,0,0-.993-.216c-.435.162-.589.695-.629,1.157A10.714,10.714,0,0,1,337.487,383.6Z" transform="translate(-309.559 -320.794)" fill="#2f2e41"/>
  <path id="Path_70" data-name="Path 70" d="M139.677,377.819l.805,9.864,4.227,10.267-6.241-10.065Z" transform="translate(-110.594 -301.761)" opacity="0.2"/>
  <path id="Path_71" data-name="Path 71" d="M440.319,487.131,396.2,460.955a3.325,3.325,0,0,1-1.162-4.551l20.559-34.653a2.436,2.436,0,0,1,3.334-.851l45.612,27.06a2.478,2.478,0,0,1,.866,3.392L444.87,485.969A3.325,3.325,0,0,1,440.319,487.131Z" transform="translate(-359.228 -357.056)" fill="#f2f2f2"/>
  <path id="Path_72" data-name="Path 72" d="M418.567,485.955l38.581,22.889a3.221,3.221,0,0,0,4.414-1.127l15.771-26.584a3.221,3.221,0,0,0-1.127-4.414l-38.581-22.889a3.221,3.221,0,0,0-4.414,1.127l-15.771,26.584A3.221,3.221,0,0,0,418.567,485.955Z" transform="translate(-377.132 -383.269)" fill="#fff"/>
  <path id="Path_73" data-name="Path 73" d="M549.119,442.873l-49.835-29.565.863-1.454a3.336,3.336,0,0,1,4.567-1.164l44.1,26.163a3.336,3.336,0,0,1,1.167,4.566Z" transform="translate(-442.861 -348.801)" fill="#ccc"/>
  <circle id="Ellipse_14" data-name="Ellipse 14" cx="0.862" cy="0.862" r="0.862" transform="translate(62.051 64.581)" fill="#fff"/>
  <circle id="Ellipse_15" data-name="Ellipse 15" cx="0.862" cy="0.862" r="0.862" transform="translate(64.865 66.251)" fill="#fff"/>
  <circle id="Ellipse_16" data-name="Ellipse 16" cx="0.862" cy="0.862" r="0.862" transform="translate(67.68 67.921)" fill="#fff"/>
  <rect id="Rectangle_21" data-name="Rectangle 21" width="0.11" height="0.66" transform="matrix(0.51, -0.86, 0.86, 0.51, 95.114, 99.213)" fill="#e6e6e6"/>
  <path id="Path_74" data-name="Path 74" d="M544.85,510.587l-1.146-.68.056-.095,1.146.68Zm-2.292-1.36-1.146-.68.056-.095,1.146.68Zm-2.292-1.36-1.146-.68.056-.095,1.146.68Zm-2.292-1.36-1.146-.68.056-.095,1.146.68Zm-2.292-1.36-1.146-.68.056-.095,1.146.68Zm-2.292-1.36-1.146-.68.056-.095,1.146.68Zm-2.292-1.36-1.146-.68.056-.095,1.146.68Zm-2.292-1.36-1.146-.68.056-.095,1.146.68Zm-2.292-1.36-1.146-.68.056-.095,1.146.68Zm-2.292-1.36-1.146-.68.056-.095,1.146.68Zm-2.292-1.36-1.146-.68.056-.095,1.146.68Zm-2.292-1.36-1.146-.68.056-.095,1.146.68Zm-2.292-1.36-1.146-.68.056-.095,1.146.68Zm-2.292-1.36-1.146-.68.056-.095,1.146.68Zm-2.292-1.36-1.146-.68.056-.095,1.146.68Zm-2.292-1.36-1.146-.68.056-.095,1.146.68Z" transform="translate(-450.882 -412.053)" fill="#e6e6e6"/>
  <rect id="Rectangle_22" data-name="Rectangle 22" width="0.11" height="0.66" transform="matrix(0.51, -0.86, 0.86, 0.51, 56.732, 76.443)" fill="#e6e6e6"/>
  <rect id="Rectangle_23" data-name="Rectangle 23" width="0.11" height="0.66" transform="matrix(0.51, -0.86, 0.86, 0.51, 71.274, 96.956)" fill="#e6e6e6"/>
  <path id="Path_75" data-name="Path 75" d="M500.266,543.182l-1.129-.67.056-.094,1.129.67Zm-2.258-1.339-1.129-.67.056-.095,1.129.67ZM495.75,540.5l-1.129-.67.056-.094,1.129.67Zm-2.258-1.339-1.129-.67.056-.094,1.129.67Zm-2.258-1.339-1.129-.67.056-.095,1.129.67Zm-2.258-1.339-1.129-.67.056-.095,1.129.67Zm-2.258-1.339-1.129-.67.056-.094,1.129.67Zm-2.258-1.339-1.129-.67.056-.095,1.129.67Z" transform="translate(-430.12 -446.895)" fill="#e6e6e6"/>
  <rect id="Rectangle_24" data-name="Rectangle 24" width="0.11" height="0.66" transform="matrix(0.51, -0.86, 0.86, 0.51, 51.516, 85.235)" fill="#e6e6e6"/>
  <rect id="Rectangle_25" data-name="Rectangle 25" width="0.11" height="0.66" transform="matrix(0.51, -0.86, 0.86, 0.51, 57.746, 94.554)" fill="#e6e6e6"/>
  <path id="Path_76" data-name="Path 76" d="M477.043,557.34l-1.161-.689.056-.095,1.161.689Zm-2.323-1.378-1.161-.689.056-.094,1.161.689Zm-2.323-1.378-1.161-.689.056-.095,1.161.689Z" transform="translate(-420.459 -463.475)" fill="#e6e6e6"/>
  <rect id="Rectangle_26" data-name="Rectangle 26" width="0.11" height="0.66" transform="matrix(0.51, -0.86, 0.86, 0.51, 49.049, 89.394)" fill="#e6e6e6"/>
  <rect id="Rectangle_27" data-name="Rectangle 27" width="0.11" height="0.66" transform="matrix(0.51, -0.86, 0.86, 0.51, 53.535, 101.653)" fill="#e6e6e6"/>
  <path id="Path_77" data-name="Path 77" d="M456.124,592.6l-1.161-.689.056-.095,1.161.689Zm-2.323-1.378-1.161-.689.056-.095,1.161.689Zm-2.323-1.378-1.161-.689.056-.095,1.161.689Z" transform="translate(-403.751 -491.638)" fill="#e6e6e6"/>
  <rect id="Rectangle_28" data-name="Rectangle 28" width="0.11" height="0.66" transform="matrix(0.51, -0.86, 0.86, 0.51, 44.837, 96.493)" fill="#e6e6e6"/>
  <path id="Path_78" data-name="Path 78" d="M457.4,584.767l32.694,19.4a3.476,3.476,0,0,0,4.757-1.214l9.553-16.1-.066-.036-21.674,5.532-1.717-6.722a.83.83,0,0,0-.481-.561.884.884,0,0,0-.567-.032l-11.358,2.9-1.255-4.915a.833.833,0,0,0-1.014-.6C466.2,582.43,458.807,584.388,457.4,584.767Z" transform="translate(-409.409 -486.304)" fill="#ebc985"/>
  <path id="Path_79" data-name="Path 79" d="M456.323,584.537l-.027-.106,9.089-2.32a.935.935,0,0,1,1.136.674l1.23,4.818,11.3-2.883a.935.935,0,0,1,1.136.674l1.691,6.626,21.787-5.562.027.107-21.893,5.589-1.719-6.732a.824.824,0,0,0-1-.595l-11.4,2.911-1.257-4.925a.825.825,0,0,0-1-.595Z" transform="translate(-408.526 -486.062)" fill="#3f3d56"/>
  <circle id="Ellipse_17" data-name="Ellipse 17" cx="0.769" cy="0.769" r="0.769" transform="translate(57.572 94.074)" fill="#3f3d56"/>
  <circle id="Ellipse_18" data-name="Ellipse 18" cx="0.769" cy="0.769" r="0.769" transform="translate(71.1 96.477)" fill="#3f3d56"/>
  <circle id="Ellipse_19" data-name="Ellipse 19" cx="0.769" cy="0.769" r="0.769" transform="translate(94.669 98.33)" fill="#3f3d56"/>
  <path id="Path_80" data-name="Path 80" d="M382.44,563.139a2.024,2.024,0,0,1-.064-3.1l-2.693-6.671,3.664.74,2,6.221a2.035,2.035,0,0,1-2.9,2.813Z" transform="translate(-347.336 -463.127)" fill="#ffb8b8"/>
  <path id="Path_81" data-name="Path 81" d="M368.489,475.835a.908.908,0,0,1-.921-.6l-4.36-12.424-.932-12.4a2.58,2.58,0,1,1,5.151-.312l.521,11.32,3.422,12.525a.911.911,0,0,1-.567,1.091l-2.074.748A.911.911,0,0,1,368.489,475.835Z" transform="translate(-333.43 -378.713)" fill="#3f3d56"/>
  <path id="Path_82" data-name="Path 82" d="M776.441,497.654a.924.924,0,0,1-.225-.14l-4.055-3.416a.921.921,0,0,1-.059-1.354l3.679-3.694a.916.916,0,0,1,1.194-.1l2.782,2.021a.922.922,0,0,1,.292,1.139l-2.407,5.089a.922.922,0,0,1-1.2.451Z" transform="translate(-660.544 -411.541)" fill="#6c63ff"/>
  <path id="Path_83" data-name="Path 83" d="M630.013,630.672l-2.422.659L623.9,622.3l3.574-.972Z" transform="translate(-498.302 -496.253)" fill="#ffb8b8"/>
  <path id="Path_84" data-name="Path 84" d="M3,0h4.89V3.047H0V3A3,3,0,0,1,3,0Z" transform="translate(124.431 135.656) rotate(-15.221)" fill="#2f2e41"/>
  <path id="Path_85" data-name="Path 85" d="M536.747,638.5h-2.51l-1.194-9.68h3.7Z" transform="translate(-425.738 -502.236)" fill="#ffb8b8"/>
  <path id="Path_86" data-name="Path 86" d="M517.929,673.346h4.89v3.047h-7.887v-.05a3,3,0,0,1,3-3Z" transform="translate(-411.272 -537.796)" fill="#2f2e41"/>
  <circle id="Ellipse_20" data-name="Ellipse 20" cx="5.028" cy="5.028" r="5.028" transform="translate(109.763 62.3)" fill="#ffb8b8"/>
  <path id="Path_87" data-name="Path 87" d="M750.513,594.234h-3.429a.924.924,0,0,1-.92-.864c-1.022-16.245-.424-27.9,1.881-36.673a.958.958,0,0,1,.037-.113l.184-.459a.917.917,0,0,1,.855-.579h7.052a.92.92,0,0,1,.7.322l.958,1.118c.019.022.036.044.053.067,4.319,6.023,8.19,17.8,12.674,33.628a.918.918,0,0,1-.606,1.129l-3.686,1.179a.926.926,0,0,1-1.111-.477l-9.564-19.837a.716.716,0,0,0-1.355.214l-2.81,20.549A.925.925,0,0,1,750.513,594.234Z" transform="translate(-639.657 -464.868)" fill="#2f2e41"/>
  <path id="Path_88" data-name="Path 88" d="M765.562,489.233h-.029l-8.566-.27a.918.918,0,0,1-.886-.809c-1.086-8.79,1.892-11.145,3.223-11.749a.708.708,0,0,0,.412-.562l.115-.921a.918.918,0,0,1,.182-.447,10.527,10.527,0,0,1,6.449-3.844.92.92,0,0,1,1.075.788l.173,1.323a.728.728,0,0,0,.146.346c4.352,5.689-.5,14.089-1.512,15.715h0A.923.923,0,0,1,765.562,489.233Z" transform="translate(-647.775 -397.035)" fill="#ebc985"/>
  <path id="Path_89" data-name="Path 89" d="M813.393,400.758a20.844,20.844,0,0,1-.824-3.473,2.352,2.352,0,0,1,.621-1.9c.936-.886,2.525-.464,3.5.375a7.863,7.863,0,0,1,2.386,4.919,51.279,51.279,0,0,1,.213,5.58,11.237,11.237,0,0,0,1.279,5.378,5.153,5.153,0,0,0,4.568,2.7,3.215,3.215,0,0,0,2.012-.853,2.334,2.334,0,0,0,.7-2.026,4.547,4.547,0,0,1-.948,5.341,5.658,5.658,0,0,1-5.456,1.144,7.541,7.541,0,0,1-4.309-3.72,11.423,11.423,0,0,1-1.2-5.651,23.1,23.1,0,0,0,.039-4.476,3.944,3.944,0,0,0-2.63-3.317Z" transform="translate(-693.071 -336.557)" fill="#2f2e41"/>
  <path id="Path_90" data-name="Path 90" d="M768.423,412.334a1.861,1.861,0,0,1-2.05,1.2,2.4,2.4,0,0,1-1.814-1.668,3.433,3.433,0,0,1,.268-2.517,3.92,3.92,0,0,1,2.243-2,3.218,3.218,0,0,1,2.926.468,1.076,1.076,0,0,1,.752-.786,2.057,2.057,0,0,1,1.129.017,4.65,4.65,0,0,1,2.588,1.883,7.567,7.567,0,0,1,1.173,3.024,6.559,6.559,0,0,1-.728,4.764,3.663,3.663,0,0,1-4.284,1.528,2,2,0,0,1,.387-1.384,4.22,4.22,0,0,0,.663-1.3,1.053,1.053,0,0,0-.556-1.226c-.4-.134-.82.083-1.237.109a1.356,1.356,0,0,1-1.3-1.954Z" transform="translate(-654.633 -346.195)" fill="#2f2e41"/>
  <path id="Path_91" data-name="Path 91" d="M706.687,525.582a2.16,2.16,0,0,1,.23.249l10.121-.788,1.067-2.223,3.566,1.172-1.929,5.273-12.749-.856a2.149,2.149,0,1,1-.307-2.828Z" transform="translate(-605.64 -438.731)" fill="#ffb8b8"/>
  <path id="Path_92" data-name="Path 92" d="M774.674,511.169a.926.926,0,0,1-.242-.108l-4.482-2.831a.921.921,0,0,1-.243-1.334l3.141-4.161a.916.916,0,0,1,1.17-.257l3.032,1.622a.922.922,0,0,1,.444,1.089l-1.691,5.37A.922.922,0,0,1,774.674,511.169Z" transform="translate(-658.696 -422.395)" fill="#ebc985"/>
</svg>
