<svg xmlns="http://www.w3.org/2000/svg" width="170" height="126.86" viewBox="0 0 170 126.86">
  <g id="Group_13" data-name="Group 13" transform="translate(0)">
    <path id="Path_120" data-name="Path 120" d="M527.776,280.34H400.864a3.271,3.271,0,0,1-3.268-3.268V198.817a2.4,2.4,0,0,1,2.394-2.394H528.608a2.438,2.438,0,0,1,2.435,2.435v78.215A3.271,3.271,0,0,1,527.776,280.34Z" transform="translate(-361.043 -193.688)" fill="#f2f2f2"/>
    <path id="Path_121" data-name="Path 121" d="M536.261,294.829H417.982a3.053,3.053,0,0,1-3.144-2.945V223.738a2.263,2.263,0,0,1,2.33-2.184H537.036a2.3,2.3,0,0,1,2.369,2.22v68.111A3.053,3.053,0,0,1,536.261,294.829Z" transform="translate(-374.158 -212.805)" fill="#fff"/>
    <path id="Path_122" data-name="Path 122" d="M530.852,189.941H397.4v-1.664a3.282,3.282,0,0,1,3.28-3.278H527.572a3.282,3.282,0,0,1,3.279,3.278Z" transform="translate(-360.897 -185)" fill="#e6e6e6"/>
    <circle id="Ellipse_22" data-name="Ellipse 22" cx="0.848" cy="0.848" r="0.848" transform="translate(41.619 1.627)" fill="#fff"/>
    <circle id="Ellipse_23" data-name="Ellipse 23" cx="0.848" cy="0.848" r="0.848" transform="translate(44.839 1.627)" fill="#fff"/>
    <circle id="Ellipse_24" data-name="Ellipse 24" cx="0.848" cy="0.848" r="0.848" transform="translate(48.059 1.627)" fill="#fff"/>
    <path id="Path_123" data-name="Path 123" d="M625.817,336.547h63.341a3.169,3.169,0,0,0,3.169-3.169V304.752a3.169,3.169,0,0,0-3.169-3.169H625.817a3.169,3.169,0,0,0-3.169,3.169v28.626A3.169,3.169,0,0,0,625.817,336.547Z" transform="translate(-532.227 -273.678)" fill="#f2f2f2"/>
    <path id="Path_124" data-name="Path 124" d="M706.107,371.169h-50.5a1.584,1.584,0,1,1,0-3.169h50.5a1.584,1.584,0,0,1,0,3.169Z" transform="translate(-556.091 -324.198)" fill="#fff"/>
    <path id="Path_125" data-name="Path 125" d="M706.107,399.3h-50.5a1.584,1.584,0,1,1,0-3.169h50.5a1.584,1.584,0,0,1,0,3.169Z" transform="translate(-556.091 -345.595)" fill="#fff"/>
    <path id="Path_126" data-name="Path 126" d="M697.195,343.038H655.606a1.584,1.584,0,1,1,0-3.169h41.588a1.584,1.584,0,0,1,0,3.169Z" transform="translate(-556.091 -302.8)" fill="#fff"/>
    <path id="Path_127" data-name="Path 127" d="M505.759,475.167a2.407,2.407,0,0,1,3.254-1.742l5.615-6.452,1.193,4.282-5.515,5.471a2.42,2.42,0,0,1-4.547-1.558Z" transform="translate(-443.275 -399.48)" fill="#ffb8b8"/>
    <circle id="Ellipse_25" data-name="Ellipse 25" cx="5.879" cy="5.879" r="5.879" transform="translate(87.424 33.651)" fill="#ffb8b8"/>
    <path id="Path_128" data-name="Path 128" d="M347.187,467.251h-2.935l-1.4-11.319h4.331Z" transform="translate(-260.791 -346.801)" fill="#ffb8b8"/>
    <path id="Path_129" data-name="Path 129" d="M578.891,688.02h-9.462v-.12a3.683,3.683,0,0,1,3.683-3.683h5.779Z" transform="translate(-491.746 -564.725)" fill="#2f2e41"/>
    <path id="Path_130" data-name="Path 130" d="M387.333,480.252H384.4l-.406-11.048,3.341-.27Z" transform="translate(-292.08 -356.69)" fill="#ffb8b8"/>
    <path id="Path_131" data-name="Path 131" d="M615.891,701.02h-9.462v-.12a3.683,3.683,0,0,1,3.683-3.683h5.779Z" transform="translate(-519.89 -574.614)" fill="#2f2e41"/>
    <path id="Path_132" data-name="Path 132" d="M594.869,552.742l-2.285-.269a1.08,1.08,0,0,1-.951-1.054l-.428-29.762a.359.359,0,0,0-.7-.115l-3.17,8.952.227,16.779a1.077,1.077,0,0,1-1.012,1.09l-2.983.127a1.084,1.084,0,0,1-1.136-.939l-1.558-18.981v-.012l2.364-19.823,17.756,1.285-4.929,41.78a1.079,1.079,0,0,1-1.069.951A1.056,1.056,0,0,1,594.869,552.742Z" transform="translate(-500.451 -431.245)" fill="#2f2e41"/>
    <path id="Path_133" data-name="Path 133" d="M589.276,413.064a1.071,1.071,0,0,1-.564-.866s1.6-9.93,2.182-10.116l-1.28-10.619a9.792,9.792,0,0,1,2.1-7.3,9.338,9.338,0,0,1,6.47-3.466q.268-.024.534-.037a9.423,9.423,0,0,1,7.931,3.61,9.6,9.6,0,0,1,1.728,8.714l-.718,2.5v17.463a1.09,1.09,0,0,1-.446.874A11.94,11.94,0,0,1,600,416.043,24.4,24.4,0,0,1,589.276,413.064Z" transform="translate(-506.414 -333.818)" fill="#ebc985"/>
    <path id="Path_134" data-name="Path 134" d="M522.29,423.97l-3.088-2.309a1.077,1.077,0,0,1-.143-1.6l18.4-19.741a3.6,3.6,0,0,1,4.673-.5h0a3.585,3.585,0,0,1,.461,5.5l-18.9,18.551a1.07,1.07,0,0,1-1.284.17A1.11,1.11,0,0,1,522.29,423.97Z" transform="translate(-453.213 -347.92)" fill="#ebc985"/>
    <path id="Path_135" data-name="Path 135" d="M631.617,471.5a2.407,2.407,0,0,1,3.522-1.1l6.723-5.288.371,4.429-6.441,4.343a2.42,2.42,0,0,1-4.175-2.381Z" transform="translate(-538.904 -398.059)" fill="#ffb8b8"/>
    <path id="Path_136" data-name="Path 136" d="M644.73,417.845a1.068,1.068,0,0,1-.724-.778l-.679-2.852a1.062,1.062,0,0,1,.395-1.1l4.569-4.941-6.721-10.363a3.648,3.648,0,1,1,6.183-3.742L654,406.227a5.533,5.533,0,0,1-1.848,7.132l-6.385,4.265a1.068,1.068,0,0,1-.711.272A1.089,1.089,0,0,1,644.73,417.845Z" transform="translate(-546 -342.344)" fill="#ebc985"/>
    <path id="Path_137" data-name="Path 137" d="M616.318,327.195a1.053,1.053,0,0,1-1.554-.614l0-.015a5.036,5.036,0,0,1,.006-1.5,1.884,1.884,0,0,0-.365-1.422c-.642-.685-1.775-.314-2.7-.483a2.277,2.277,0,0,1-1.784-2.422c.013-.1.033-.209.055-.314a1.753,1.753,0,0,0-1.831-2.113c-.932.058-1.937.346-2.712-.34a2,2,0,0,1-.491-2.152,4.058,4.058,0,0,1,2.9-2.318,10.673,10.673,0,0,1,9.054,1.436,4.79,4.79,0,0,1,1.848,2.12,2.332,2.332,0,0,1-.562,2.61,4.816,4.816,0,0,1,1.141,4.672C618.961,325.528,617.2,326.678,616.318,327.195Z" transform="translate(-518.659 -282.409)" fill="#2f2e41"/>
    <path id="Path_138" data-name="Path 138" d="M567.207,713.479H532.021a.239.239,0,0,1,0-.479h35.186c.132,0,.107.239.239.239C567.506,713.239,567.339,713.479,567.207,713.479Z" transform="translate(-463.111 -586.619)" fill="#ccc"/>
    <path id="Path_139" data-name="Path 139" d="M310.3,296.741a2.9,2.9,0,0,0-2.727-1.917h-59.8a2.9,2.9,0,0,0-2.9,2.895v45.888a2.9,2.9,0,0,0,2.9,2.9h59.8a2.9,2.9,0,0,0,2.9-2.9V297.721a2.874,2.874,0,0,0-.17-.98Z" transform="translate(-244.884 -268.537)" fill="#fff"/>
    <path id="Path_140" data-name="Path 140" d="M310.3,296.741a2.9,2.9,0,0,0-2.727-1.917h-59.8a2.9,2.9,0,0,0-2.9,2.895v45.888a2.9,2.9,0,0,0,2.9,2.9h59.8a2.9,2.9,0,0,0,2.9-2.9V297.721a2.874,2.874,0,0,0-.17-.98Zm-.17,46.866a2.559,2.559,0,0,1-2.556,2.556h-59.8a2.559,2.559,0,0,1-2.556-2.556V297.721a2.56,2.56,0,0,1,2.556-2.556h59.8a2.56,2.56,0,0,1,2.556,2.556Z" transform="translate(-244.884 -268.537)" fill="#3f3d56"/>
    <path id="Path_141" data-name="Path 141" d="M321.667,318.056V350.1a.806.806,0,0,1-.806.807H266.468a.673.673,0,0,1-.116-.009.806.806,0,0,1-.691-.8V318.056a.806.806,0,0,1,.806-.807H320.86a.806.806,0,0,1,.807.806Z" transform="translate(-260.688 -285.594)" fill="#e6e6e6"/>
    <circle id="Ellipse_26" data-name="Ellipse 26" cx="7.077" cy="7.077" r="7.077" transform="translate(11.607 36.552)" fill="#ebc985"/>
    <path id="Path_142" data-name="Path 142" d="M304.921,366.118H270.2a.708.708,0,0,1-.13-.01l16.42-28.442a1.15,1.15,0,0,1,2,0l11.02,19.087.528.913Z" transform="translate(-264.044 -300.68)" fill="#3f3d56"/>
    <path id="Path_143" data-name="Path 143" d="M133.108,243.626H121.254l5.819-8.452.419-.609.209-.3.528.913Z" transform="translate(-92.231 -178.189)" opacity="0.2" style="isolation: isolate"/>
    <path id="Path_144" data-name="Path 144" d="M401,392.755H370.968l5.819-8.452.419-.609,7.582-11.015a1.534,1.534,0,0,1,2.277-.136,1.373,1.373,0,0,1,.109.136Z" transform="translate(-340.789 -327.318)" fill="#3f3d56"/>
  </g>
</svg>
