<svg xmlns="http://www.w3.org/2000/svg" width="194.015" height="142.86" viewBox="0 0 194.015 142.86">
  <g id="Group_16" data-name="Group 16" transform="translate(0 0)">
    <path id="Path_222" data-name="Path 222" d="M548.141,197.409H481.292a4.013,4.013,0,0,1-4.009-4.009V153.967a3,3,0,0,1,3-3H549.1a3.049,3.049,0,0,1,3.046,3.046V193.4A4.013,4.013,0,0,1,548.141,197.409Z" transform="translate(-408.385 -148.036)" fill="#fff"/>
    <path id="Path_223" data-name="Path 223" d="M548.141,197.409H481.292a4.013,4.013,0,0,1-4.009-4.009V153.967a3,3,0,0,1,3-3H549.1a3.049,3.049,0,0,1,3.046,3.046V193.4A4.013,4.013,0,0,1,548.141,197.409Zm-67.86-45.982a2.543,2.543,0,0,0-2.54,2.54V193.4a3.554,3.554,0,0,0,3.55,3.55h66.849a3.554,3.554,0,0,0,3.55-3.55V154.015a2.591,2.591,0,0,0-2.588-2.588Z" transform="translate(-408.385 -148.036)" fill="#3f3d56"/>
    <path id="Path_224" data-name="Path 224" d="M498.448,214.752h59.519a3.665,3.665,0,0,0,3.665-3.665V182.328a3.665,3.665,0,0,0-3.665-3.665H498.448a3.665,3.665,0,0,0-3.665,3.665v28.758A3.665,3.665,0,0,0,498.448,214.752Z" transform="translate(-421.877 -169.387)" fill="#f2f2f2"/>
    <path id="Path_225" data-name="Path 225" d="M551.691,143.878H476.559v-1.924a3.817,3.817,0,0,1,3.835-3.791h67.462a3.817,3.817,0,0,1,3.835,3.791Z" transform="translate(-407.827 -138.163)" fill="#ebc985"/>
    <circle id="Ellipse_38" data-name="Ellipse 38" cx="0.981" cy="0.981" r="0.981" transform="translate(74.987 1.882)" fill="#fff"/>
    <circle id="Ellipse_39" data-name="Ellipse 39" cx="0.981" cy="0.981" r="0.981" transform="translate(78.711 1.882)" fill="#fff"/>
    <circle id="Ellipse_40" data-name="Ellipse 40" cx="0.981" cy="0.981" r="0.981" transform="translate(82.435 1.882)" fill="#fff"/>
    <path id="Path_226" data-name="Path 226" d="M531.592,239.555A7.559,7.559,0,1,1,539.151,232a7.559,7.559,0,0,1-7.559,7.559Z" transform="translate(-444.426 -204.675)" fill="#ebc985"/>
    <path id="Path_227" data-name="Path 227" d="M644.524,272.1H615.269a1.876,1.876,0,0,1-1.893-1.707,1.835,1.835,0,0,1,1.828-1.958h29.247a1.881,1.881,0,0,1,1.9,1.715,1.834,1.834,0,0,1-1.829,1.95Z" transform="translate(-513.301 -238.596)" fill="#3f3d56"/>
    <path id="Path_228" data-name="Path 228" d="M629.177,238.1H615.269a1.876,1.876,0,0,1-1.893-1.707,1.835,1.835,0,0,1,1.828-1.958h13.9a1.881,1.881,0,0,1,1.9,1.715,1.835,1.835,0,0,1-1.829,1.95Z" transform="translate(-513.301 -212.384)" fill="#3f3d56"/>
    <path id="Path_229" data-name="Path 229" d="M915.46,553.17a2.3,2.3,0,0,0-1.794-3.043l-1.381-8.068-3.1,2.907,1.788,7.216a2.316,2.316,0,0,0,4.492.988Z" transform="translate(-741.351 -449.542)" fill="#ffb8b8"/>
    <path id="Path_230" data-name="Path 230" d="M890.461,479.861l-3.048.8a.575.575,0,0,1-.7-.4l-5.478-19.409-1.655-4.951A2.982,2.982,0,0,1,882.769,452h0a2.98,2.98,0,0,1,2.5,2.114l4.377,14.8,1.236,10.332a.575.575,0,0,1-.3.574A.561.561,0,0,1,890.461,479.861Z" transform="translate(-718.415 -380.093)" fill="#ccc"/>
    <circle id="Ellipse_41" data-name="Ellipse 41" cx="5.626" cy="5.626" r="5.626" transform="translate(155.279 57.378)" fill="#ffb8b8"/>
    <path id="Path_231" data-name="Path 231" d="M621.078,572.129l-2.692-.8,1.808-10.763,3.973,1.182Z" transform="translate(-476.737 -432.161)" fill="#ffb8b8"/>
    <path id="Path_232" data-name="Path 232" d="M777.035,743.952l-8.679-2.582.033-.11a3.524,3.524,0,0,1,4.383-2.373h0l5.3,1.577Z" transform="translate(-632.784 -601.17)" fill="#2f2e41"/>
    <path id="Path_233" data-name="Path 233" d="M744.927,573.991h-2.808l-1.336-10.832h2.77Z" transform="translate(-571.098 -434.161)" fill="#ffb8b8"/>
    <path id="Path_234" data-name="Path 234" d="M908.026,748.246h-9.055v-.115a3.524,3.524,0,0,1,3.524-3.524h5.531Z" transform="translate(-733.481 -605.694)" fill="#2f2e41"/>
    <path id="Path_235" data-name="Path 235" d="M797.51,574.922h-2.82a1.031,1.031,0,0,1-1.014-1.217c-1.8-.8,7.883-47.229,10.171-46.329l.075-.109,11.519.94c5.159,10.326,8.425,27.413,11.481,45.25a1.031,1.031,0,0,1-.949,1.283l-3.168.154a1.026,1.026,0,0,1-1.007-.647L809.661,543.9a.328.328,0,0,0-.327-.216.337.337,0,0,0-.317.231L798.484,574.23A1.032,1.032,0,0,1,797.51,574.922Z" transform="translate(-652.134 -438.138)" fill="#2f2e41"/>
    <path id="Path_236" data-name="Path 236" d="M848.92,465.608l-.088-.007-12.264-.926,2.151-13.682a7.163,7.163,0,0,1,6.121-6h0l.285-.039a7.078,7.078,0,0,1,6.433,2.575,7.167,7.167,0,0,1,1.227,6.911Z" transform="translate(-685.372 -374.631)" fill="#ccc"/>
    <path id="Path_237" data-name="Path 237" d="M875.764,391.97c-3.869,1.77-9.117,1.453-15.118,0,.83-2.274,1.477-4.471.744-6.084a4.912,4.912,0,0,1-.161-3.931,7.561,7.561,0,0,1,6.977-4.644h0a7.559,7.559,0,0,1,7.559,7.559Z" transform="translate(-703.934 -322.531)" fill="#2f2e41"/>
    <path id="Path_238" data-name="Path 238" d="M675.415,241.392h4.81v5.915H670.146v-.647a5.268,5.268,0,0,1,5.268-5.268Z" transform="translate(-516.641 -186.099)" fill="#2f2e41"/>
    <path id="Path_239" data-name="Path 239" d="M822.311,558.078a2.3,2.3,0,0,0-.159-3.528l2.561-7.775-4.105,1.113-1.8,7.212a2.316,2.316,0,0,0,3.506,2.978Z" transform="translate(-671.38 -453.178)" fill="#ffb8b8"/>
    <path id="Path_240" data-name="Path 240" d="M823.542,480.238l-3.068-.722a.575.575,0,0,1-.429-.678l4.256-19.713.858-5.149a2.982,2.982,0,0,1,4.645-1.958h0a2.98,2.98,0,0,1,1.22,3.04l-3.067,15.122-3.75,9.706a.575.575,0,0,1-.535.366.563.563,0,0,1-.13-.015Z" transform="translate(-672.624 -379.714)" fill="#ccc"/>
    <path id="Path_241" data-name="Path 241" d="M728,760.295H640.729a.229.229,0,0,1,0-.458H728a.229.229,0,0,1,0,.458Z" transform="translate(-534.215 -617.435)" fill="#ccc"/>
    <path id="Path_242" data-name="Path 242" d="M262.28,491.018a2.4,2.4,0,0,0-.359.123l-9.546-6.158.132-2.757-4.134-.742-.707,4.857a1.832,1.832,0,0,0,1.052,1.931l11.757,5.367a2.4,2.4,0,1,0,1.806-2.621Z" transform="translate(-231.349 -402.843)" fill="#ffb8b8"/>
    <path id="Path_243" data-name="Path 243" d="M246.522,463.916l-5.12-.945a1.031,1.031,0,0,1-.788-1.347l1.68-4.911a2.863,2.863,0,1,1,5.627,1.056l-.182,5.17a1.031,1.031,0,0,1-1.217.977Z" transform="translate(-225.885 -381.945)" fill="#3f3d56"/>
    <path id="Path_244" data-name="Path 244" d="M393.456,433.857H306.183a4.326,4.326,0,0,0-2.144.566,4.234,4.234,0,0,0-.451.3,4.344,4.344,0,0,0-1.757,3.491v45.354a4.356,4.356,0,0,0,4.352,4.352h87.273a4.356,4.356,0,0,0,4.352-4.352V438.209A4.356,4.356,0,0,0,393.456,433.857Z" transform="translate(-273.122 -366.125)" fill="#fff"/>
    <path id="Path_245" data-name="Path 245" d="M393.456,433.857H306.183a4.326,4.326,0,0,0-2.144.566,4.234,4.234,0,0,0-.451.3,4.344,4.344,0,0,0-1.757,3.491v45.354a4.356,4.356,0,0,0,4.352,4.352h87.273a4.356,4.356,0,0,0,4.352-4.352V438.209A4.356,4.356,0,0,0,393.456,433.857Zm3.894,49.706a3.9,3.9,0,0,1-3.894,3.894H306.183a3.9,3.9,0,0,1-3.894-3.894V438.209a3.916,3.916,0,0,1,2.7-3.706c.032-.009.062-.021.094-.03a3.894,3.894,0,0,1,1.1-.158h87.273a3.9,3.9,0,0,1,3.894,3.894Z" transform="translate(-273.122 -366.125)" fill="#3f3d56"/>
    <path id="Path_246" data-name="Path 246" d="M353.72,465.005a2.059,2.059,0,0,1-.994-.256l-45.593-25.094a.229.229,0,0,1,.221-.4l45.593,25.094a1.6,1.6,0,0,0,1.521.013l46.344-24.448a.229.229,0,0,1,.214.405l-46.344,24.448A2.059,2.059,0,0,1,353.72,465.005Z" transform="translate(-277.118 -370.263)" fill="#3f3d56"/>
    <path id="Path_247" data-name="Path 247" d="M337.644,607.521H331.23a1.832,1.832,0,1,1,0-3.665h6.414a1.832,1.832,0,1,1,0,3.665Z" transform="translate(-294.374 -497.184)" fill="#3f3d56"/>
    <path id="Path_248" data-name="Path 248" d="M345.2,634.521H331.23a1.832,1.832,0,1,1,0-3.665H345.2a1.832,1.832,0,1,1,0,3.665Z" transform="translate(-294.374 -517.999)" fill="#3f3d56"/>
    <circle id="Ellipse_42" data-name="Ellipse 42" cx="7.33" cy="7.33" r="7.33" transform="translate(69.253 87.431)" fill="#ebc985"/>
    <path id="Path_249" data-name="Path 249" d="M364.828,449.717l32.3,13.477a.458.458,0,0,0,.348,0l33.3-13.477a.458.458,0,0,0-.172-.883H365a.458.458,0,0,0-.176.881Z" transform="translate(-321.472 -377.673)" fill="#f2f2f2"/>
    <path id="Path_250" data-name="Path 250" d="M294.375,431.624a2.408,2.408,0,0,0-.055.376l-9.84,5.677-2.392-1.377-2.55,3.338,4,2.849a1.832,1.832,0,0,0,2.2-.054l10.147-8a2.4,2.4,0,1,0-1.506-2.8Z" transform="translate(-255.937 -362.973)" fill="#ffb8b8"/>
    <path id="Path_251" data-name="Path 251" d="M267.882,449.8l-3.18,4.122a1.031,1.031,0,0,1-1.559.085l-3.6-3.739a2.863,2.863,0,0,1,3.511-4.523l4.516,2.525a1.031,1.031,0,0,1,.313,1.529Z" transform="translate(-239.668 -374.824)" fill="#3f3d56"/>
    <circle id="Ellipse_43" data-name="Ellipse 43" cx="5.626" cy="5.626" r="5.626" transform="translate(9.566 53.879)" fill="#ffb8b8"/>
    <path id="Path_252" data-name="Path 252" d="M89.5,574.991h2.808l1.336-10.832H89.5Z" transform="translate(-69.001 -434.932)" fill="#ffb8b8"/>
    <path id="Path_253" data-name="Path 253" d="M262.878,745.607h5.531a3.525,3.525,0,0,1,3.524,3.525v.115h-9.055Z" transform="translate(-243.092 -606.465)" fill="#2f2e41"/>
    <path id="Path_254" data-name="Path 254" d="M47.5,574.991h2.808l1.336-10.832H47.5Z" transform="translate(-36.622 -434.932)" fill="#ffb8b8"/>
    <path id="Path_255" data-name="Path 255" d="M220.878,745.607h5.531a3.525,3.525,0,0,1,3.524,3.525v.115h-9.055Z" transform="translate(-210.713 -606.465)" fill="#2f2e41"/>
    <path id="Path_256" data-name="Path 256" d="M227.79,608.071l-2.865-22.163a.113.113,0,0,0-.116-.107.109.109,0,0,0-.113.11l-.823,21.841a1.028,1.028,0,0,1-1.03.992h-3.4a1.025,1.025,0,0,1-1.03-1.006l-.883-36.39,15.223.152.38,36.507a1.032,1.032,0,0,1-.362.761,1.017,1.017,0,0,1-.792.238l-3.3.009A1.032,1.032,0,0,1,227.79,608.071Z" transform="translate(-208.131 -472.122)" fill="#2f2e41"/>
    <path id="Path_257" data-name="Path 257" d="M211.964,462.9a1.03,1.03,0,0,1-.651-.809l-.152-20c-.673-4.453-1.469-8.816,2.425-11.072l.343-1.029a.575.575,0,0,1,.527-.391l7.386-.211a.568.568,0,0,1,.543.347l.549,1.282.2.111a10.86,10.86,0,0,1,5.406,10.722l-.422,3.565-.3,16.662a1.04,1.04,0,0,1-.541.89,14.014,14.014,0,0,1-6.772,1.577A25.37,25.37,0,0,1,211.964,462.9Z" transform="translate(-202.792 -362.682)" fill="#3f3d56"/>
    <path id="Path_258" data-name="Path 258" d="M221.382,379.593a6,6,0,1,1,1.125-11.871,6.9,6.9,0,0,1,4.117-1.128,4.036,4.036,0,0,1,3.407,2.328,2.882,2.882,0,0,1-1.381,3.66,5.207,5.207,0,0,1-2.747.039,4.1,4.1,0,0,0-2.716.24c-.8.473-1.157,1.742-.442,2.334a2.46,2.46,0,0,1,.706,2.708A2.691,2.691,0,0,1,221.382,379.593Z" transform="translate(-206.374 -314.254)" fill="#2f2e41"/>
    <path id="Path_259" data-name="Path 259" d="M212.463,760.295H176.729a.229.229,0,1,1,0-.458h35.734a.229.229,0,0,1,0,.458Z" transform="translate(-176.5 -617.435)" fill="#ccc"/>
  </g>
</svg>
